<svg width="387" height="142" viewBox="0 0 387 142" fill="none" xmlns="http://www.w3.org/2000/svg">
<g clip-path="url(#clip0_1_2)">
<path d="M16.76 105V19.88H30.84L31.48 39.08L29.72 38.6C30.7867 32.0933 32.8667 27.0267 35.96 23.4C39.16 19.7733 43.16 17.96 47.96 17.96C53.08 17.96 56.92 19.7733 59.48 23.4C62.1467 27.0267 63.8 32.4133 64.44 39.56H62.68C63.64 32.7333 65.8267 27.4533 69.24 23.72C72.6533 19.88 76.92 17.96 82.04 17.96C88.76 17.96 93.6133 20.3067 96.6 25C99.6933 29.5867 101.24 37.1067 101.24 47.56V105H85.56V50.28C85.56 43.4533 84.8133 38.7067 83.32 36.04C81.9333 33.3733 79.7467 32.04 76.76 32.04C74.84 32.04 73.08 32.68 71.48 33.96C69.9867 35.24 68.8133 37.2667 67.96 40.04C67.1067 42.7067 66.68 46.2267 66.68 50.6V105H51.32V50.28C51.32 43.6667 50.6267 38.9733 49.24 36.2C47.96 33.4267 45.7733 32.04 42.68 32.04C40.6533 32.04 38.8933 32.68 37.4 33.96C35.9067 35.24 34.68 37.2667 33.72 40.04C32.8667 42.7067 32.44 46.2267 32.44 50.6V105H16.76ZM118.458 129V19.88H133.818L134.138 39.24L132.218 38.28C134.351 31.6667 137.818 26.6533 142.618 23.24C147.524 19.72 153.284 17.96 159.898 17.96C168.111 17.96 174.831 20.04 180.058 24.2C185.284 28.2533 189.178 33.64 191.738 40.36C194.298 47.08 195.578 54.44 195.578 62.44C195.578 70.44 194.298 77.8 191.738 84.52C189.178 91.24 185.284 96.68 180.058 100.84C174.831 104.893 168.111 106.92 159.898 106.92C155.524 106.92 151.471 106.227 147.738 104.84C144.004 103.347 140.804 101.267 138.138 98.6C135.578 95.8267 133.711 92.52 132.538 88.68L134.618 86.44V129H118.458ZM156.858 92.04C163.684 92.04 169.018 89.48 172.858 84.36C176.698 79.24 178.618 71.9333 178.618 62.44C178.618 52.9467 176.698 45.64 172.858 40.52C169.018 35.4 163.684 32.84 156.858 32.84C152.378 32.84 148.484 33.96 145.178 36.2C141.871 38.3333 139.258 41.5867 137.338 45.96C135.524 50.3333 134.618 55.8267 134.618 62.44C134.618 69.0533 135.524 74.5467 137.338 78.92C139.151 83.2933 141.711 86.6 145.018 88.84C148.431 90.9733 152.378 92.04 156.858 92.04Z" fill="black"/>
<path d="M210.52 129V19.88H225.88L226.2 39.24L224.28 38.28C226.413 31.6667 229.88 26.6533 234.68 23.24C239.587 19.72 245.347 17.96 251.96 17.96C260.173 17.96 266.893 20.04 272.12 24.2C277.347 28.2533 281.24 33.64 283.8 40.36C286.36 47.08 287.64 54.44 287.64 62.44C287.64 70.44 286.36 77.8 283.8 84.52C281.24 91.24 277.347 96.68 272.12 100.84C266.893 104.893 260.173 106.92 251.96 106.92C247.587 106.92 243.533 106.227 239.8 104.84C236.067 103.347 232.867 101.267 230.2 98.6C227.64 95.8267 225.773 92.52 224.6 88.68L226.68 86.44V129H210.52ZM248.92 92.04C255.747 92.04 261.08 89.48 264.92 84.36C268.76 79.24 270.68 71.9333 270.68 62.44C270.68 52.9467 268.76 45.64 264.92 40.52C261.08 35.4 255.747 32.84 248.92 32.84C244.44 32.84 240.547 33.96 237.24 36.2C233.933 38.3333 231.32 41.5867 229.4 45.96C227.587 50.3333 226.68 55.8267 226.68 62.44C226.68 69.0533 227.587 74.5467 229.4 78.92C231.213 83.2933 233.773 86.6 237.08 88.84C240.493 90.9733 244.44 92.04 248.92 92.04Z" fill="black"/>
<path d="M291.426 105L289.388 103.552L286.582 107.5H291.426V105ZM322.078 61.866L324.116 63.3141L325.145 61.8662L324.116 60.4181L322.078 61.866ZM293.006 20.944V18.444H288.163L290.968 22.3919L293.006 20.944ZM311.018 20.944L313.081 19.5323L312.337 18.444H311.018V20.944ZM331.558 50.964L329.495 52.3757L331.582 55.4266L333.636 52.3533L331.558 50.964ZM351.624 20.944V18.444H350.288L349.546 19.5547L351.624 20.944ZM369.952 20.944L371.999 22.3792L374.758 18.444H369.952V20.944ZM341.038 62.182L338.991 60.7468L337.979 62.1895L338.998 63.6272L341.038 62.182ZM371.374 105V107.5H376.209L373.414 103.555L371.374 105ZM353.204 105L351.129 106.394L351.871 107.5H353.204V105ZM331.558 72.768L333.633 71.3742L331.566 68.295L329.487 71.3672L331.558 72.768ZM309.754 105V107.5H311.081L311.825 106.401L309.754 105ZM291.426 105L293.464 106.448L324.116 63.3141L322.078 61.866L320.04 60.4178L289.388 103.552L291.426 105ZM322.078 61.866L324.116 60.4181L295.044 19.4961L293.006 20.944L290.968 22.3919L320.04 63.3139L322.078 61.866ZM293.006 20.944V23.444H311.018V20.944V18.444H293.006V20.944ZM311.018 20.944L308.955 22.3557L329.495 52.3757L331.558 50.964L333.621 49.5523L313.081 19.5323L311.018 20.944ZM331.558 50.964L333.636 52.3533L353.702 22.3333L351.624 20.944L349.546 19.5547L329.48 49.5747L331.558 50.964ZM351.624 20.944V23.444H369.952V20.944V18.444H351.624V20.944ZM369.952 20.944L367.905 19.5088L338.991 60.7468L341.038 62.182L343.085 63.6172L371.999 22.3792L369.952 20.944ZM341.038 62.182L338.998 63.6272L369.334 106.445L371.374 105L373.414 103.555L343.078 60.7367L341.038 62.182ZM371.374 105V102.5H353.204V105V107.5H371.374V105ZM353.204 105L355.279 103.606L333.633 71.3742L331.558 72.768L329.483 74.1618L351.129 106.394L353.204 105ZM331.558 72.768L329.487 71.3672L307.683 103.599L309.754 105L311.825 106.401L333.629 74.1688L331.558 72.768ZM309.754 105V102.5H291.426V105V107.5H309.754V105Z" fill="black"/>
</g>
<defs>
<clipPath id="clip0_1_2">
<rect width="387" height="142" fill="white"/>
</clipPath>
</defs>
</svg>
