<svg width="387" height="142" viewBox="0 0 387 142" fill="none" xmlns="http://www.w3.org/2000/svg">
<g clip-path="url(#clip0_2_2)">
<mask id="path-1-outside-1_2_2" maskUnits="userSpaceOnUse" x="15" y="16" width="182" height="114" fill="black">
<rect fill="white" x="15" y="16" width="182" height="114"/>
<path d="M16.76 105V19.88H30.84L31.48 39.08L29.72 38.6C30.7867 32.0933 32.8667 27.0267 35.96 23.4C39.16 19.7733 43.16 17.96 47.96 17.96C53.08 17.96 56.92 19.7733 59.48 23.4C62.1467 27.0267 63.8 32.4133 64.44 39.56H62.68C63.64 32.7333 65.8267 27.4533 69.24 23.72C72.6533 19.88 76.92 17.96 82.04 17.96C88.76 17.96 93.6133 20.3067 96.6 25C99.6933 29.5867 101.24 37.1067 101.24 47.56V105H85.56V50.28C85.56 43.4533 84.8133 38.7067 83.32 36.04C81.9333 33.3733 79.7467 32.04 76.76 32.04C74.84 32.04 73.08 32.68 71.48 33.96C69.9867 35.24 68.8133 37.2667 67.96 40.04C67.1067 42.7067 66.68 46.2267 66.68 50.6V105H51.32V50.28C51.32 43.6667 50.6267 38.9733 49.24 36.2C47.96 33.4267 45.7733 32.04 42.68 32.04C40.6533 32.04 38.8933 32.68 37.4 33.96C35.9067 35.24 34.68 37.2667 33.72 40.04C32.8667 42.7067 32.44 46.2267 32.44 50.6V105H16.76ZM118.458 129V19.88H133.818L134.138 39.24L132.218 38.28C134.351 31.6667 137.818 26.6533 142.618 23.24C147.524 19.72 153.284 17.96 159.898 17.96C168.111 17.96 174.831 20.04 180.058 24.2C185.284 28.2533 189.178 33.64 191.738 40.36C194.298 47.08 195.578 54.44 195.578 62.44C195.578 70.44 194.298 77.8 191.738 84.52C189.178 91.24 185.284 96.68 180.058 100.84C174.831 104.893 168.111 106.92 159.898 106.92C155.524 106.92 151.471 106.227 147.738 104.84C144.004 103.347 140.804 101.267 138.138 98.6C135.578 95.8267 133.711 92.52 132.538 88.68L134.618 86.44V129H118.458ZM156.858 92.04C163.684 92.04 169.018 89.48 172.858 84.36C176.698 79.24 178.618 71.9333 178.618 62.44C178.618 52.9467 176.698 45.64 172.858 40.52C169.018 35.4 163.684 32.84 156.858 32.84C152.378 32.84 148.484 33.96 145.178 36.2C141.871 38.3333 139.258 41.5867 137.338 45.96C135.524 50.3333 134.618 55.8267 134.618 62.44C134.618 69.0533 135.524 74.5467 137.338 78.92C139.151 83.2933 141.711 86.6 145.018 88.84C148.431 90.9733 152.378 92.04 156.858 92.04Z"/>
</mask>
<path d="M16.76 105V19.88H30.84L31.48 39.08L29.72 38.6C30.7867 32.0933 32.8667 27.0267 35.96 23.4C39.16 19.7733 43.16 17.96 47.96 17.96C53.08 17.96 56.92 19.7733 59.48 23.4C62.1467 27.0267 63.8 32.4133 64.44 39.56H62.68C63.64 32.7333 65.8267 27.4533 69.24 23.72C72.6533 19.88 76.92 17.96 82.04 17.96C88.76 17.96 93.6133 20.3067 96.6 25C99.6933 29.5867 101.24 37.1067 101.24 47.56V105H85.56V50.28C85.56 43.4533 84.8133 38.7067 83.32 36.04C81.9333 33.3733 79.7467 32.04 76.76 32.04C74.84 32.04 73.08 32.68 71.48 33.96C69.9867 35.24 68.8133 37.2667 67.96 40.04C67.1067 42.7067 66.68 46.2267 66.68 50.6V105H51.32V50.28C51.32 43.6667 50.6267 38.9733 49.24 36.2C47.96 33.4267 45.7733 32.04 42.68 32.04C40.6533 32.04 38.8933 32.68 37.4 33.96C35.9067 35.24 34.68 37.2667 33.72 40.04C32.8667 42.7067 32.44 46.2267 32.44 50.6V105H16.76ZM118.458 129V19.88H133.818L134.138 39.24L132.218 38.28C134.351 31.6667 137.818 26.6533 142.618 23.24C147.524 19.72 153.284 17.96 159.898 17.96C168.111 17.96 174.831 20.04 180.058 24.2C185.284 28.2533 189.178 33.64 191.738 40.36C194.298 47.08 195.578 54.44 195.578 62.44C195.578 70.44 194.298 77.8 191.738 84.52C189.178 91.24 185.284 96.68 180.058 100.84C174.831 104.893 168.111 106.92 159.898 106.92C155.524 106.92 151.471 106.227 147.738 104.84C144.004 103.347 140.804 101.267 138.138 98.6C135.578 95.8267 133.711 92.52 132.538 88.68L134.618 86.44V129H118.458ZM156.858 92.04C163.684 92.04 169.018 89.48 172.858 84.36C176.698 79.24 178.618 71.9333 178.618 62.44C178.618 52.9467 176.698 45.64 172.858 40.52C169.018 35.4 163.684 32.84 156.858 32.84C152.378 32.84 148.484 33.96 145.178 36.2C141.871 38.3333 139.258 41.5867 137.338 45.96C135.524 50.3333 134.618 55.8267 134.618 62.44C134.618 69.0533 135.524 74.5467 137.338 78.92C139.151 83.2933 141.711 86.6 145.018 88.84C148.431 90.9733 152.378 92.04 156.858 92.04Z" fill="white"/>
<path d="M16.76 105H15.76V106H16.76V105ZM16.76 19.88V18.88H15.76V19.88H16.76ZM30.84 19.88L31.8394 19.8467L31.8072 18.88H30.84V19.88ZM31.48 39.08L31.2169 40.0448L32.5246 40.4014L32.4794 39.0467L31.48 39.08ZM29.72 38.6L28.7332 38.4382L28.5874 39.3276L29.4569 39.5648L29.72 38.6ZM35.96 23.4L35.2102 22.7384L35.2046 22.7447L35.1992 22.751L35.96 23.4ZM59.48 23.4L58.663 23.9767L58.6686 23.9846L58.6744 23.9924L59.48 23.4ZM64.44 39.56V40.56H65.5336L65.436 39.4708L64.44 39.56ZM62.68 39.56L61.6897 39.4207L61.5295 40.56H62.68V39.56ZM69.24 23.72L69.9781 24.3948L69.9874 24.3844L69.24 23.72ZM96.6 25L95.7563 25.5369L95.7635 25.5481L95.7709 25.5591L96.6 25ZM101.24 105V106H102.24V105H101.24ZM85.56 105H84.56V106H85.56V105ZM83.32 36.04L82.4328 36.5014L82.4399 36.5151L82.4475 36.5286L83.32 36.04ZM71.48 33.96L70.8553 33.1791L70.8421 33.1897L70.8292 33.2007L71.48 33.96ZM67.96 40.04L68.9125 40.3448L68.9158 40.3341L67.96 40.04ZM66.68 105V106H67.68V105H66.68ZM51.32 105H50.32V106H51.32V105ZM49.24 36.2L48.332 36.6191L48.3386 36.6332L48.3456 36.6472L49.24 36.2ZM37.4 33.96L36.7492 33.2007H36.7492L37.4 33.96ZM33.72 40.04L32.775 39.7129L32.7712 39.724L32.7676 39.7352L33.72 40.04ZM32.44 105V106H33.44V105H32.44ZM16.76 105H17.76V19.88H16.76H15.76V105H16.76ZM16.76 19.88V20.88H30.84V19.88V18.88H16.76V19.88ZM30.84 19.88L29.8406 19.9133L30.4806 39.1133L31.48 39.08L32.4794 39.0467L31.8394 19.8467L30.84 19.88ZM31.48 39.08L31.7431 38.1152L29.9831 37.6352L29.72 38.6L29.4569 39.5648L31.2169 40.0448L31.48 39.08ZM29.72 38.6L30.7068 38.7618C31.7548 32.369 33.7828 27.4935 36.7208 24.0489L35.96 23.4L35.1992 22.751C31.9505 26.5598 29.8185 31.8177 28.7332 38.4382L29.72 38.6ZM35.96 23.4L36.7098 24.0616C39.7217 20.6482 43.4494 18.96 47.96 18.96V17.96V16.96C42.8706 16.96 38.5983 18.8985 35.2102 22.7384L35.96 23.4ZM47.96 17.96V18.96C52.8124 18.96 56.3212 20.6591 58.663 23.9767L59.48 23.4L60.297 22.8233C57.5188 18.8876 53.3476 16.96 47.96 16.96V17.96ZM59.48 23.4L58.6744 23.9924C61.1864 27.4088 62.8115 32.5864 63.444 39.6492L64.44 39.56L65.436 39.4708C64.7885 32.2402 63.1069 26.6445 60.2857 22.8076L59.48 23.4ZM64.44 39.56V38.56H62.68V39.56V40.56H64.44V39.56ZM62.68 39.56L63.6703 39.6993C64.6121 33.0017 66.7422 27.9339 69.978 24.3948L69.24 23.72L68.502 23.0452C64.9111 26.9727 62.6679 32.4649 61.6897 39.4207L62.68 39.56ZM69.24 23.72L69.9874 24.3844C73.2117 20.757 77.2068 18.96 82.04 18.96V17.96V16.96C76.6332 16.96 72.0949 19.003 68.4926 23.0556L69.24 23.72ZM82.04 17.96V18.96C88.5003 18.96 92.9934 21.1951 95.7563 25.5369L96.6 25L97.4437 24.4631C94.2333 19.4182 89.0197 16.96 82.04 16.96V17.96ZM96.6 25L95.7709 25.5591C98.691 29.8889 100.24 37.1552 100.24 47.56H101.24H102.24C102.24 37.0581 100.696 29.2844 97.4291 24.4409L96.6 25ZM101.24 47.56H100.24V105H101.24H102.24V47.56H101.24ZM101.24 105V104H85.56V105V106H101.24V105ZM85.56 105H86.56V50.28H85.56H84.56V105H85.56ZM85.56 50.28H86.56C86.56 43.4447 85.8234 38.4638 84.1925 35.5514L83.32 36.04L82.4475 36.5286C83.8032 38.9496 84.56 43.462 84.56 50.28H85.56ZM83.32 36.04L84.2072 35.5786C83.4445 34.1119 82.4349 32.9632 81.1606 32.1862C79.886 31.409 78.406 31.04 76.76 31.04V32.04V33.04C78.1006 33.04 79.2074 33.3377 80.1194 33.8938C81.0318 34.4501 81.8088 35.3014 82.4328 36.5014L83.32 36.04ZM76.76 32.04V31.04C74.5971 31.04 72.6198 31.7675 70.8553 33.1791L71.48 33.96L72.1047 34.7409C73.5402 33.5925 75.0829 33.04 76.76 33.04V32.04ZM71.48 33.96L70.8292 33.2007C69.1394 34.6492 67.8883 36.8725 67.0042 39.7459L67.96 40.04L68.9158 40.3341C69.7383 37.6608 70.834 35.8308 72.1308 34.7193L71.48 33.96ZM67.96 40.04L67.0076 39.7352C66.1102 42.5396 65.68 46.1745 65.68 50.6H66.68H67.68C67.68 46.2789 68.1031 42.8738 68.9124 40.3448L67.96 40.04ZM66.68 50.6H65.68V105H66.68H67.68V50.6H66.68ZM66.68 105V104H51.32V105V106H66.68V105ZM51.32 105H52.32V50.28H51.32H50.32V105H51.32ZM51.32 50.28H52.32C52.32 43.649 51.6332 38.7504 50.1344 35.7528L49.24 36.2L48.3456 36.6472C49.6201 39.1963 50.32 43.6844 50.32 50.28H51.32ZM49.24 36.2L50.148 35.7809C49.4421 34.2515 48.4587 33.0492 47.1755 32.2355C45.8932 31.4223 44.379 31.04 42.68 31.04V32.04V33.04C44.0744 33.04 45.2001 33.351 46.1045 33.9245C47.008 34.4975 47.7579 35.3752 48.332 36.6191L49.24 36.2ZM42.68 32.04V31.04C40.4226 31.04 38.4297 31.7603 36.7492 33.2007L37.4 33.96L38.0508 34.7193C39.3569 33.5997 40.8841 33.04 42.68 33.04V32.04ZM37.4 33.96L36.7492 33.2007C35.0707 34.6394 33.7665 36.8486 32.775 39.7129L33.72 40.04L34.665 40.3671C35.5935 37.6848 36.7426 35.8406 38.0508 34.7193L37.4 33.96ZM33.72 40.04L32.7676 39.7352C31.8702 42.5396 31.44 46.1745 31.44 50.6H32.44H33.44C33.44 46.2789 33.8631 42.8738 34.6724 40.3448L33.72 40.04ZM32.44 50.6H31.44V105H32.44H33.44V50.6H32.44ZM32.44 105V104H16.76V105V106H32.44V105ZM118.458 129H117.458V130H118.458V129ZM118.458 19.88V18.88H117.458V19.88H118.458ZM133.818 19.88L134.817 19.8635L134.801 18.88H133.818V19.88ZM134.137 39.24L133.69 40.1344L135.165 40.8716L135.137 39.2235L134.137 39.24ZM132.217 38.28L131.266 37.973L131.002 38.7903L131.77 39.1744L132.217 38.28ZM142.617 23.24L143.197 24.055L143.2 24.0525L142.617 23.24ZM180.057 24.2L179.435 24.9825L179.445 24.9902L180.057 24.2ZM191.738 84.52L192.672 84.876V84.876L191.738 84.52ZM180.057 100.84L180.67 101.63L180.68 101.622L180.057 100.84ZM147.738 104.84L147.366 105.768L147.378 105.773L147.389 105.777L147.738 104.84ZM138.137 98.6L137.403 99.2783L137.416 99.293L137.43 99.3071L138.137 98.6ZM132.538 88.68L131.805 87.9995L131.413 88.4215L131.581 88.9722L132.538 88.68ZM134.618 86.44H135.618V83.8935L133.885 85.7596L134.618 86.44ZM134.618 129V130H135.618V129H134.618ZM172.858 84.36L173.658 84.96V84.96L172.858 84.36ZM172.858 40.52L173.658 39.92V39.92L172.858 40.52ZM145.178 36.2L145.72 37.0403L145.729 37.0342L145.738 37.0279L145.178 36.2ZM137.338 45.96L136.422 45.558L136.418 45.5675L136.414 45.577L137.338 45.96ZM137.338 78.92L136.414 79.303V79.303L137.338 78.92ZM145.018 88.84L144.457 89.6679L144.472 89.6782L144.488 89.688L145.018 88.84ZM118.458 129H119.458V19.88H118.458H117.458V129H118.458ZM118.458 19.88V20.88H133.818V19.88V18.88H118.458V19.88ZM133.818 19.88L132.818 19.8965L133.138 39.2565L134.137 39.24L135.137 39.2235L134.817 19.8635L133.818 19.88ZM134.137 39.24L134.585 38.3456L132.665 37.3856L132.217 38.28L131.77 39.1744L133.69 40.1344L134.137 39.24ZM132.217 38.28L133.169 38.587C135.249 32.1406 138.603 27.3221 143.197 24.0549L142.617 23.24L142.038 22.425C137.032 25.9845 133.453 31.1928 131.266 37.973L132.217 38.28ZM142.617 23.24L143.2 24.0525C147.921 20.6661 153.472 18.96 159.898 18.96V17.96V16.96C153.096 16.96 147.127 18.7739 142.035 22.4275L142.617 23.24ZM159.898 17.96V18.96C167.938 18.96 174.423 20.9933 179.435 24.9824L180.057 24.2L180.68 23.4176C175.239 19.0867 168.284 16.96 159.898 16.96V17.96ZM180.057 24.2L179.445 24.9902C184.514 28.9213 188.302 34.152 190.803 40.716L191.738 40.36L192.672 40.004C190.053 33.128 186.055 27.5853 180.67 23.4098L180.057 24.2ZM191.738 40.36L190.803 40.716C193.315 47.3102 194.577 54.548 194.577 62.44H195.577H196.577C196.577 54.332 195.28 46.8498 192.672 40.004L191.738 40.36ZM195.577 62.44H194.577C194.577 70.332 193.315 77.5698 190.803 84.164L191.738 84.52L192.672 84.876C195.28 78.0302 196.577 70.548 196.577 62.44H195.577ZM191.738 84.52L190.803 84.164C188.302 90.7298 184.51 96.0177 179.435 100.058L180.057 100.84L180.68 101.622C186.058 97.3423 190.053 91.7502 192.672 84.876L191.738 84.52ZM180.057 100.84L179.445 100.05C174.432 103.937 167.944 105.92 159.898 105.92V106.92V107.92C168.278 107.92 175.229 105.85 180.67 101.63L180.057 100.84ZM159.898 106.92V105.92C155.631 105.92 151.697 105.244 148.086 103.903L147.738 104.84L147.389 105.777C151.244 107.209 155.417 107.92 159.898 107.92V106.92ZM147.738 104.84L148.109 103.912C144.493 102.465 141.409 100.458 138.845 97.8929L138.137 98.6L137.43 99.3071C140.199 102.076 143.515 104.228 147.366 105.768L147.738 104.84ZM138.137 98.6L138.872 97.9217C136.421 95.2658 134.626 92.0935 133.494 88.3878L132.538 88.68L131.581 88.9722C132.796 92.9465 134.734 96.3876 137.403 99.2783L138.137 98.6ZM132.538 88.68L133.27 89.3605L135.35 87.1205L134.618 86.44L133.885 85.7596L131.805 87.9995L132.538 88.68ZM134.618 86.44H133.618V129H134.618H135.618V86.44H134.618ZM134.618 129V128H118.458V129V130H134.618V129ZM156.857 92.04V93.04C163.975 93.04 169.614 90.3507 173.658 84.96L172.858 84.36L172.057 83.76C168.421 88.6093 163.394 91.04 156.857 91.04V92.04ZM172.858 84.36L173.658 84.96C177.677 79.6012 179.617 72.0499 179.617 62.44H178.617H177.617C177.617 71.8168 175.718 78.8788 172.057 83.76L172.858 84.36ZM178.617 62.44H179.617C179.617 52.8301 177.677 45.2788 173.658 39.92L172.858 40.52L172.057 41.12C175.718 46.0012 177.617 53.0632 177.617 62.44H178.617ZM172.858 40.52L173.658 39.92C169.614 34.5293 163.975 31.84 156.857 31.84V32.84V33.84C163.394 33.84 168.421 36.2707 172.057 41.12L172.858 40.52ZM156.857 32.84V31.84C152.203 31.84 148.109 33.0066 144.617 35.3721L145.178 36.2L145.738 37.0279C148.86 34.9134 152.552 33.84 156.857 33.84V32.84ZM145.178 36.2L144.635 35.3597C141.132 37.6202 138.404 41.0439 136.422 45.558L137.338 45.96L138.253 46.362C140.111 42.1294 142.61 39.0465 145.72 37.0403L145.178 36.2ZM137.338 45.96L136.414 45.577C134.534 50.1097 133.618 55.7437 133.618 62.44H134.618H135.618C135.618 55.9096 136.514 50.557 138.261 46.343L137.338 45.96ZM134.618 62.44H133.618C133.618 69.1363 134.534 74.7703 136.414 79.303L137.338 78.92L138.261 78.537C136.514 74.323 135.618 68.9704 135.618 62.44H134.618ZM137.338 78.92L136.414 79.303C138.288 83.8229 140.96 87.2993 144.457 89.6679L145.018 88.84L145.578 88.0121C142.462 85.9007 140.014 82.7638 138.261 78.537L137.338 78.92ZM145.018 88.84L144.488 89.688C148.077 91.9316 152.212 93.04 156.857 93.04V92.04V91.04C152.543 91.04 148.784 90.015 145.548 87.992L145.018 88.84Z" fill="white" mask="url(#path-1-outside-1_2_2)"/>
<mask id="path-3-outside-2_2_2" maskUnits="userSpaceOnUse" x="209" y="16" width="80" height="114" fill="black">
<rect fill="white" x="209" y="16" width="80" height="114"/>
<path d="M210.52 129V19.88H225.88L226.2 39.24L224.28 38.28C226.413 31.6667 229.88 26.6533 234.68 23.24C239.587 19.72 245.347 17.96 251.96 17.96C260.173 17.96 266.893 20.04 272.12 24.2C277.347 28.2533 281.24 33.64 283.8 40.36C286.36 47.08 287.64 54.44 287.64 62.44C287.64 70.44 286.36 77.8 283.8 84.52C281.24 91.24 277.347 96.68 272.12 100.84C266.893 104.893 260.173 106.92 251.96 106.92C247.587 106.92 243.533 106.227 239.8 104.84C236.067 103.347 232.867 101.267 230.2 98.6C227.64 95.8267 225.773 92.52 224.6 88.68L226.68 86.44V129H210.52ZM248.92 92.04C255.747 92.04 261.08 89.48 264.92 84.36C268.76 79.24 270.68 71.9333 270.68 62.44C270.68 52.9467 268.76 45.64 264.92 40.52C261.08 35.4 255.747 32.84 248.92 32.84C244.44 32.84 240.547 33.96 237.24 36.2C233.933 38.3333 231.32 41.5867 229.4 45.96C227.587 50.3333 226.68 55.8267 226.68 62.44C226.68 69.0533 227.587 74.5467 229.4 78.92C231.213 83.2933 233.773 86.6 237.08 88.84C240.493 90.9733 244.44 92.04 248.92 92.04Z"/>
</mask>
<path d="M210.52 129V19.88H225.88L226.2 39.24L224.28 38.28C226.413 31.6667 229.88 26.6533 234.68 23.24C239.587 19.72 245.347 17.96 251.96 17.96C260.173 17.96 266.893 20.04 272.12 24.2C277.347 28.2533 281.24 33.64 283.8 40.36C286.36 47.08 287.64 54.44 287.64 62.44C287.64 70.44 286.36 77.8 283.8 84.52C281.24 91.24 277.347 96.68 272.12 100.84C266.893 104.893 260.173 106.92 251.96 106.92C247.587 106.92 243.533 106.227 239.8 104.84C236.067 103.347 232.867 101.267 230.2 98.6C227.64 95.8267 225.773 92.52 224.6 88.68L226.68 86.44V129H210.52ZM248.92 92.04C255.747 92.04 261.08 89.48 264.92 84.36C268.76 79.24 270.68 71.9333 270.68 62.44C270.68 52.9467 268.76 45.64 264.92 40.52C261.08 35.4 255.747 32.84 248.92 32.84C244.44 32.84 240.547 33.96 237.24 36.2C233.933 38.3333 231.32 41.5867 229.4 45.96C227.587 50.3333 226.68 55.8267 226.68 62.44C226.68 69.0533 227.587 74.5467 229.4 78.92C231.213 83.2933 233.773 86.6 237.08 88.84C240.493 90.9733 244.44 92.04 248.92 92.04Z" fill="white"/>
<path d="M210.52 129H209.52V130H210.52V129ZM210.52 19.88V18.88H209.52V19.88H210.52ZM225.88 19.88L226.88 19.8635L226.864 18.88H225.88V19.88ZM226.2 39.24L225.753 40.1344L227.227 40.8716L227.2 39.2235L226.2 39.24ZM224.28 38.28L223.328 37.973L223.065 38.7903L223.833 39.1744L224.28 38.28ZM234.68 23.24L235.26 24.055L235.263 24.0525L234.68 23.24ZM272.12 24.2L271.497 24.9825L271.507 24.9902L272.12 24.2ZM283.8 84.52L284.734 84.876V84.876L283.8 84.52ZM272.12 100.84L272.733 101.63L272.743 101.622L272.12 100.84ZM239.8 104.84L239.429 105.768L239.44 105.773L239.452 105.777L239.8 104.84ZM230.2 98.6L229.465 99.2783L229.479 99.293L229.493 99.3071L230.2 98.6ZM224.6 88.68L223.867 87.9995L223.475 88.4215L223.644 88.9722L224.6 88.68ZM226.68 86.44H227.68V83.8935L225.947 85.7596L226.68 86.44ZM226.68 129V130H227.68V129H226.68ZM264.92 84.36L265.72 84.96V84.96L264.92 84.36ZM264.92 40.52L265.72 39.92V39.92L264.92 40.52ZM237.24 36.2L237.782 37.0403L237.792 37.0342L237.801 37.0279L237.24 36.2ZM229.4 45.96L228.484 45.558L228.48 45.5675L228.476 45.577L229.4 45.96ZM229.4 78.92L228.476 79.303V79.303L229.4 78.92ZM237.08 88.84L236.519 89.6679L236.534 89.6782L236.55 89.688L237.08 88.84ZM210.52 129H211.52V19.88H210.52H209.52V129H210.52ZM210.52 19.88V20.88H225.88V19.88V18.88H210.52V19.88ZM225.88 19.88L224.88 19.8965L225.2 39.2565L226.2 39.24L227.2 39.2235L226.88 19.8635L225.88 19.88ZM226.2 39.24L226.647 38.3456L224.727 37.3856L224.28 38.28L223.833 39.1744L225.753 40.1344L226.2 39.24ZM224.28 38.28L225.232 38.587C227.311 32.1406 230.665 27.3221 235.26 24.0549L234.68 23.24L234.1 22.425C229.095 25.9845 225.515 31.1928 223.328 37.973L224.28 38.28ZM234.68 23.24L235.263 24.0525C239.983 20.6661 245.535 18.96 251.96 18.96V17.96V16.96C245.158 16.96 239.19 18.7739 234.097 22.4275L234.68 23.24ZM251.96 17.96V18.96C260 18.96 266.485 20.9933 271.497 24.9824L272.12 24.2L272.743 23.4176C267.301 19.0867 260.346 16.96 251.96 16.96V17.96ZM272.12 24.2L271.507 24.9902C276.576 28.9213 280.365 34.152 282.866 40.716L283.8 40.36L284.734 40.004C282.115 33.128 278.117 27.5853 272.733 23.4098L272.12 24.2ZM283.8 40.36L282.866 40.716C285.378 47.3102 286.64 54.548 286.64 62.44H287.64H288.64C288.64 54.332 287.342 46.8498 284.734 40.004L283.8 40.36ZM287.64 62.44H286.64C286.64 70.332 285.378 77.5698 282.866 84.164L283.8 84.52L284.734 84.876C287.342 78.0302 288.64 70.548 288.64 62.44H287.64ZM283.8 84.52L282.866 84.164C280.364 90.7298 276.573 96.0177 271.497 100.058L272.12 100.84L272.743 101.622C278.12 97.3423 282.116 91.7502 284.734 84.876L283.8 84.52ZM272.12 100.84L271.507 100.05C266.495 103.937 260.006 105.92 251.96 105.92V106.92V107.92C260.34 107.92 267.292 105.85 272.733 101.63L272.12 100.84ZM251.96 106.92V105.92C247.694 105.92 243.76 105.244 240.148 103.903L239.8 104.84L239.452 105.777C243.307 107.209 247.479 107.92 251.96 107.92V106.92ZM239.8 104.84L240.171 103.912C236.555 102.465 233.472 100.458 230.907 97.8929L230.2 98.6L229.493 99.3071C232.262 102.076 235.578 104.228 239.429 105.768L239.8 104.84ZM230.2 98.6L230.935 97.9217C228.483 95.2658 226.689 92.0935 225.556 88.3878L224.6 88.68L223.644 88.9722C224.858 92.9465 226.797 96.3876 229.465 99.2783L230.2 98.6ZM224.6 88.68L225.333 89.3605L227.413 87.1205L226.68 86.44L225.947 85.7596L223.867 87.9995L224.6 88.68ZM226.68 86.44H225.68V129H226.68H227.68V86.44H226.68ZM226.68 129V128H210.52V129V130H226.68V129ZM248.92 92.04V93.04C256.037 93.04 261.677 90.3507 265.72 84.96L264.92 84.36L264.12 83.76C260.483 88.6093 255.456 91.04 248.92 91.04V92.04ZM264.92 84.36L265.72 84.96C269.739 79.6012 271.68 72.0499 271.68 62.44H270.68H269.68C269.68 71.8168 267.781 78.8788 264.12 83.76L264.92 84.36ZM270.68 62.44H271.68C271.68 52.8301 269.739 45.2788 265.72 39.92L264.92 40.52L264.12 41.12C267.781 46.0012 269.68 53.0632 269.68 62.44H270.68ZM264.92 40.52L265.72 39.92C261.677 34.5293 256.037 31.84 248.92 31.84V32.84V33.84C255.456 33.84 260.483 36.2707 264.12 41.12L264.92 40.52ZM248.92 32.84V31.84C244.265 31.84 240.171 33.0066 236.679 35.3721L237.24 36.2L237.801 37.0279C240.922 34.9134 244.615 33.84 248.92 33.84V32.84ZM237.24 36.2L236.698 35.3597C233.194 37.6202 230.466 41.0439 228.484 45.558L229.4 45.96L230.316 46.362C232.174 42.1294 234.673 39.0465 237.782 37.0403L237.24 36.2ZM229.4 45.96L228.476 45.577C226.597 50.1097 225.68 55.7437 225.68 62.44H226.68H227.68C227.68 55.9096 228.576 50.557 230.324 46.343L229.4 45.96ZM226.68 62.44H225.68C225.68 69.1363 226.597 74.7703 228.476 79.303L229.4 78.92L230.324 78.537C228.576 74.323 227.68 68.9704 227.68 62.44H226.68ZM229.4 78.92L228.476 79.303C230.35 83.8229 233.023 87.2993 236.519 89.6679L237.08 88.84L237.641 88.0121C234.524 85.9007 232.076 82.7638 230.324 78.537L229.4 78.92ZM237.08 88.84L236.55 89.688C240.14 91.9316 244.274 93.04 248.92 93.04V92.04V91.04C244.606 91.04 240.847 90.015 237.61 87.992L237.08 88.84Z" fill="white" mask="url(#path-3-outside-2_2_2)"/>
<path d="M291.426 105L289.388 103.552L286.582 107.5H291.426V105ZM322.078 61.866L324.116 63.3141L325.145 61.8662L324.116 60.4181L322.078 61.866ZM293.006 20.944V18.444H288.163L290.968 22.3919L293.006 20.944ZM311.018 20.944L313.081 19.5323L312.337 18.444H311.018V20.944ZM331.558 50.964L329.495 52.3757L331.582 55.4266L333.636 52.3533L331.558 50.964ZM351.624 20.944V18.444H350.288L349.546 19.5547L351.624 20.944ZM369.952 20.944L371.999 22.3792L374.758 18.444H369.952V20.944ZM341.038 62.182L338.991 60.7468L337.979 62.1895L338.998 63.6272L341.038 62.182ZM371.374 105V107.5H376.209L373.414 103.555L371.374 105ZM353.204 105L351.129 106.394L351.871 107.5H353.204V105ZM331.558 72.768L333.633 71.3742L331.566 68.295L329.487 71.3672L331.558 72.768ZM309.754 105V107.5H311.081L311.825 106.401L309.754 105ZM291.426 105L293.464 106.448L324.116 63.3141L322.078 61.866L320.04 60.4178L289.388 103.552L291.426 105ZM322.078 61.866L324.116 60.4181L295.044 19.4961L293.006 20.944L290.968 22.3919L320.04 63.3139L322.078 61.866ZM293.006 20.944V23.444H311.018V20.944V18.444H293.006V20.944ZM311.018 20.944L308.955 22.3557L329.495 52.3757L331.558 50.964L333.621 49.5523L313.081 19.5323L311.018 20.944ZM331.558 50.964L333.636 52.3533L353.702 22.3333L351.624 20.944L349.546 19.5547L329.48 49.5747L331.558 50.964ZM351.624 20.944V23.444H369.952V20.944V18.444H351.624V20.944ZM369.952 20.944L367.905 19.5088L338.991 60.7468L341.038 62.182L343.085 63.6172L371.999 22.3792L369.952 20.944ZM341.038 62.182L338.998 63.6272L369.334 106.445L371.374 105L373.414 103.555L343.078 60.7367L341.038 62.182ZM371.374 105V102.5H353.204V105V107.5H371.374V105ZM353.204 105L355.279 103.606L333.633 71.3742L331.558 72.768L329.483 74.1618L351.129 106.394L353.204 105ZM331.558 72.768L329.487 71.3672L307.683 103.599L309.754 105L311.825 106.401L333.629 74.1688L331.558 72.768ZM309.754 105V102.5H291.426V105V107.5H309.754V105Z" fill="white"/>
</g>
<defs>
<clipPath id="clip0_2_2">
<rect width="387" height="142" fill="white"/>
</clipPath>
</defs>
</svg>
